<?xml version="1.0" encoding="UTF-8" standalone="no"?><svg xmlns="http://www.w3.org/2000/svg" xmlns:xlink="http://www.w3.org/1999/xlink" contentStyleType="text/css" height="432px" preserveAspectRatio="none" style="width:1349px;height:432px;background:#FFFFFF;" version="1.1" viewBox="0 0 1349 432" width="1349px" zoomAndPan="magnify"><defs/><g><!--MD5=[c60679dfbe80eab0cae5e3add7b10464]
cluster src--><g id="cluster_src"><path d="M8.5,6 L34.5,6 A3.75,3.75 0 0 1 37,8.5 L44,28.2969 L1339.5,28.2969 A2.5,2.5 0 0 1 1342,30.7969 L1342,422.5 A2.5,2.5 0 0 1 1339.5,425 L8.5,425 A2.5,2.5 0 0 1 6,422.5 L6,8.5 A2.5,2.5 0 0 1 8.5,6 " fill="none" style="stroke:#000000;stroke-width:1.5;"/><line style="stroke:#000000;stroke-width:1.5;" x1="6" x2="44" y1="28.2969" y2="28.2969"/><text fill="#000000" font-family="sans-serif" font-size="14" font-weight="bold" lengthAdjust="spacing" textLength="25" x="10" y="20.9951">src</text></g><!--MD5=[daecbfd7f5a2f61561df0ffdbcc71044]
class src.Person--><g id="elem_src.Person"><rect codeLine="1" fill="#F1F1F1" height="243.5625" id="src.Person" rx="2.5" ry="2.5" style="stroke:#181818;stroke-width:0.5;" width="198" x="811" y="41"/><ellipse cx="881.25" cy="57" fill="#ADD1B2" rx="11" ry="11" style="stroke:#181818;stroke-width:1.0;"/><path d="M883.5938,52.6719 C882.6563,52.2344 882.0625,52.0938 881.1875,52.0938 C878.5625,52.0938 876.5625,54.1719 876.5625,56.8906 L876.5625,58.0156 C876.5625,60.5938 878.6719,62.4844 881.5625,62.4844 C882.7813,62.4844 883.9375,62.1875 884.6875,61.6406 C885.2656,61.2344 885.5938,60.7813 885.5938,60.3906 C885.5938,59.9375 885.2031,59.5469 884.7344,59.5469 C884.5156,59.5469 884.3125,59.625 884.125,59.8125 C883.6719,60.2969 883.6719,60.2969 883.4844,60.3906 C883.0625,60.6563 882.375,60.7813 881.6094,60.7813 C879.5625,60.7813 878.2656,59.6875 878.2656,57.9844 L878.2656,56.8906 C878.2656,55.1094 879.5156,53.7969 881.25,53.7969 C881.8281,53.7969 882.4375,53.9531 882.9063,54.2031 C883.3906,54.4844 883.5625,54.7031 883.6563,55.1094 C883.7188,55.5156 883.75,55.6406 883.8906,55.7656 C884.0313,55.9063 884.2656,56.0156 884.4844,56.0156 C884.75,56.0156 885.0156,55.875 885.1875,55.6563 C885.2969,55.5 885.3281,55.3125 885.3281,54.8906 L885.3281,53.4688 C885.3281,53.0313 885.3125,52.9063 885.2188,52.75 C885.0625,52.4844 884.7813,52.3438 884.4844,52.3438 C884.1875,52.3438 883.9844,52.4375 883.7656,52.75 L883.5938,52.6719 Z " fill="#000000"/><text fill="#000000" font-family="sans-serif" font-size="14" lengthAdjust="spacing" textLength="49" x="901.75" y="61.8467">Person</text><line style="stroke:#181818;stroke-width:0.5;" x1="812" x2="1008" y1="73" y2="73"/><rect fill="none" height="6" style="stroke:#C82930;stroke-width:1.0;" width="6" x="819" y="83.6484"/><text fill="#000000" font-family="sans-serif" font-size="14" lengthAdjust="spacing" textLength="88" x="831" y="89.9951">String name</text><rect fill="none" height="6" style="stroke:#C82930;stroke-width:1.0;" width="6" x="819" y="99.9453"/><text fill="#000000" font-family="sans-serif" font-size="14" lengthAdjust="spacing" textLength="83" x="831" y="106.292">Integer age</text><rect fill="none" height="6" style="stroke:#C82930;stroke-width:1.0;" width="6" x="819" y="116.2422"/><text fill="#000000" font-family="sans-serif" font-size="14" lengthAdjust="spacing" textLength="104" x="831" y="122.5889">Integer height</text><rect fill="none" height="6" style="stroke:#C82930;stroke-width:1.0;" width="6" x="819" y="132.5391"/><text fill="#000000" font-family="sans-serif" font-size="14" lengthAdjust="spacing" textLength="106" x="831" y="138.8857">Integer weight</text><line style="stroke:#181818;stroke-width:0.5;" x1="812" x2="1008" y1="146.1875" y2="146.1875"/><ellipse cx="822" cy="159.8359" fill="#84BE84" rx="3" ry="3" style="stroke:#038048;stroke-width:1.0;"/><text fill="#000000" font-family="sans-serif" font-size="14" lengthAdjust="spacing" textLength="124" x="831" y="163.1826">String getName()</text><ellipse cx="822" cy="176.1328" fill="#84BE84" rx="3" ry="3" style="stroke:#038048;stroke-width:1.0;"/><text fill="#000000" font-family="sans-serif" font-size="14" lengthAdjust="spacing" textLength="152" x="831" y="179.4795">void setName(String)</text><ellipse cx="822" cy="192.4297" fill="#84BE84" rx="3" ry="3" style="stroke:#038048;stroke-width:1.0;"/><text fill="#000000" font-family="sans-serif" font-size="14" lengthAdjust="spacing" textLength="120" x="831" y="195.7764">Integer getAge()</text><ellipse cx="822" cy="208.7266" fill="#84BE84" rx="3" ry="3" style="stroke:#038048;stroke-width:1.0;"/><text fill="#000000" font-family="sans-serif" font-size="14" lengthAdjust="spacing" textLength="148" x="831" y="212.0732">void setAge(Integer)</text><ellipse cx="822" cy="225.0234" fill="#84BE84" rx="3" ry="3" style="stroke:#038048;stroke-width:1.0;"/><text fill="#000000" font-family="sans-serif" font-size="14" lengthAdjust="spacing" textLength="140" x="831" y="228.3701">Integer getHeight()</text><ellipse cx="822" cy="241.3203" fill="#84BE84" rx="3" ry="3" style="stroke:#038048;stroke-width:1.0;"/><text fill="#000000" font-family="sans-serif" font-size="14" lengthAdjust="spacing" textLength="168" x="831" y="244.667">void setHeight(Integer)</text><ellipse cx="822" cy="257.6172" fill="#84BE84" rx="3" ry="3" style="stroke:#038048;stroke-width:1.0;"/><text fill="#000000" font-family="sans-serif" font-size="14" lengthAdjust="spacing" textLength="144" x="831" y="260.9639">Integer getWeight()</text><ellipse cx="822" cy="273.9141" fill="#84BE84" rx="3" ry="3" style="stroke:#038048;stroke-width:1.0;"/><text fill="#000000" font-family="sans-serif" font-size="14" lengthAdjust="spacing" textLength="172" x="831" y="277.2607">void setWeight(Integer)</text></g><!--MD5=[5b445e7418c79d89cdd0937c78151bda]
class src.WeightStrategy--><g id="elem_src.WeightStrategy"><rect codeLine="15" fill="#F1F1F1" height="64.2969" id="src.WeightStrategy" rx="2.5" ry="2.5" style="stroke:#181818;stroke-width:0.5;" width="251" x="22.5" y="345"/><ellipse cx="86.25" cy="361" fill="#ADD1B2" rx="11" ry="11" style="stroke:#181818;stroke-width:1.0;"/><path d="M88.5938,356.6719 C87.6563,356.2344 87.0625,356.0938 86.1875,356.0938 C83.5625,356.0938 81.5625,358.1719 81.5625,360.8906 L81.5625,362.0156 C81.5625,364.5938 83.6719,366.4844 86.5625,366.4844 C87.7813,366.4844 88.9375,366.1875 89.6875,365.6406 C90.2656,365.2344 90.5938,364.7813 90.5938,364.3906 C90.5938,363.9375 90.2031,363.5469 89.7344,363.5469 C89.5156,363.5469 89.3125,363.625 89.125,363.8125 C88.6719,364.2969 88.6719,364.2969 88.4844,364.3906 C88.0625,364.6563 87.375,364.7813 86.6094,364.7813 C84.5625,364.7813 83.2656,363.6875 83.2656,361.9844 L83.2656,360.8906 C83.2656,359.1094 84.5156,357.7969 86.25,357.7969 C86.8281,357.7969 87.4375,357.9531 87.9063,358.2031 C88.3906,358.4844 88.5625,358.7031 88.6563,359.1094 C88.7188,359.5156 88.75,359.6406 88.8906,359.7656 C89.0313,359.9063 89.2656,360.0156 89.4844,360.0156 C89.75,360.0156 90.0156,359.875 90.1875,359.6563 C90.2969,359.5 90.3281,359.3125 90.3281,358.8906 L90.3281,357.4688 C90.3281,357.0313 90.3125,356.9063 90.2188,356.75 C90.0625,356.4844 89.7813,356.3438 89.4844,356.3438 C89.1875,356.3438 88.9844,356.4375 88.7656,356.75 L88.5938,356.6719 Z " fill="#000000"/><text fill="#000000" font-family="sans-serif" font-size="14" lengthAdjust="spacing" textLength="115" x="106.75" y="365.8467">WeightStrategy</text><line style="stroke:#181818;stroke-width:0.5;" x1="23.5" x2="272.5" y1="377" y2="377"/><line style="stroke:#181818;stroke-width:0.5;" x1="23.5" x2="272.5" y1="385" y2="385"/><ellipse cx="33.5" cy="398.6484" fill="#84BE84" rx="3" ry="3" style="stroke:#038048;stroke-width:1.0;"/><text fill="#000000" font-family="sans-serif" font-size="14" lengthAdjust="spacing" textLength="225" x="42.5" y="401.9951">void customSort(List&lt;Person&gt;)</text></g><!--MD5=[32be2c1ddb1c16a50ef6c6d8ef3edd49]
class src.NameSortStrategy--><g id="elem_src.NameSortStrategy"><rect codeLine="18" fill="#F1F1F1" height="64.2969" id="src.NameSortStrategy" rx="2.5" ry="2.5" style="stroke:#181818;stroke-width:0.5;" width="251" x="308.5" y="345"/><ellipse cx="362.25" cy="361" fill="#ADD1B2" rx="11" ry="11" style="stroke:#181818;stroke-width:1.0;"/><path d="M364.5938,356.6719 C363.6563,356.2344 363.0625,356.0938 362.1875,356.0938 C359.5625,356.0938 357.5625,358.1719 357.5625,360.8906 L357.5625,362.0156 C357.5625,364.5938 359.6719,366.4844 362.5625,366.4844 C363.7813,366.4844 364.9375,366.1875 365.6875,365.6406 C366.2656,365.2344 366.5938,364.7813 366.5938,364.3906 C366.5938,363.9375 366.2031,363.5469 365.7344,363.5469 C365.5156,363.5469 365.3125,363.625 365.125,363.8125 C364.6719,364.2969 364.6719,364.2969 364.4844,364.3906 C364.0625,364.6563 363.375,364.7813 362.6094,364.7813 C360.5625,364.7813 359.2656,363.6875 359.2656,361.9844 L359.2656,360.8906 C359.2656,359.1094 360.5156,357.7969 362.25,357.7969 C362.8281,357.7969 363.4375,357.9531 363.9063,358.2031 C364.3906,358.4844 364.5625,358.7031 364.6563,359.1094 C364.7188,359.5156 364.75,359.6406 364.8906,359.7656 C365.0313,359.9063 365.2656,360.0156 365.4844,360.0156 C365.75,360.0156 366.0156,359.875 366.1875,359.6563 C366.2969,359.5 366.3281,359.3125 366.3281,358.8906 L366.3281,357.4688 C366.3281,357.0313 366.3125,356.9063 366.2188,356.75 C366.0625,356.4844 365.7813,356.3438 365.4844,356.3438 C365.1875,356.3438 364.9844,356.4375 364.7656,356.75 L364.5938,356.6719 Z " fill="#000000"/><text fill="#000000" font-family="sans-serif" font-size="14" lengthAdjust="spacing" textLength="135" x="382.75" y="365.8467">NameSortStrategy</text><line style="stroke:#181818;stroke-width:0.5;" x1="309.5" x2="558.5" y1="377" y2="377"/><line style="stroke:#181818;stroke-width:0.5;" x1="309.5" x2="558.5" y1="385" y2="385"/><ellipse cx="319.5" cy="398.6484" fill="#84BE84" rx="3" ry="3" style="stroke:#038048;stroke-width:1.0;"/><text fill="#000000" font-family="sans-serif" font-size="14" lengthAdjust="spacing" textLength="225" x="328.5" y="401.9951">void customSort(List&lt;Person&gt;)</text></g><!--MD5=[d8c6cd9f124b86b72db17b0354b63790]
class src.People--><g id="elem_src.People"><rect codeLine="21" fill="#F1F1F1" height="145.7813" id="src.People" rx="2.5" ry="2.5" style="stroke:#181818;stroke-width:0.5;" width="281" x="1044.5" y="90"/><ellipse cx="1155.75" cy="106" fill="#ADD1B2" rx="11" ry="11" style="stroke:#181818;stroke-width:1.0;"/><path d="M1158.0938,101.6719 C1157.1563,101.2344 1156.5625,101.0938 1155.6875,101.0938 C1153.0625,101.0938 1151.0625,103.1719 1151.0625,105.8906 L1151.0625,107.0156 C1151.0625,109.5938 1153.1719,111.4844 1156.0625,111.4844 C1157.2813,111.4844 1158.4375,111.1875 1159.1875,110.6406 C1159.7656,110.2344 1160.0938,109.7813 1160.0938,109.3906 C1160.0938,108.9375 1159.7031,108.5469 1159.2344,108.5469 C1159.0156,108.5469 1158.8125,108.625 1158.625,108.8125 C1158.1719,109.2969 1158.1719,109.2969 1157.9844,109.3906 C1157.5625,109.6563 1156.875,109.7813 1156.1094,109.7813 C1154.0625,109.7813 1152.7656,108.6875 1152.7656,106.9844 L1152.7656,105.8906 C1152.7656,104.1094 1154.0156,102.7969 1155.75,102.7969 C1156.3281,102.7969 1156.9375,102.9531 1157.4063,103.2031 C1157.8906,103.4844 1158.0625,103.7031 1158.1563,104.1094 C1158.2188,104.5156 1158.25,104.6406 1158.3906,104.7656 C1158.5313,104.9063 1158.7656,105.0156 1158.9844,105.0156 C1159.25,105.0156 1159.5156,104.875 1159.6875,104.6563 C1159.7969,104.5 1159.8281,104.3125 1159.8281,103.8906 L1159.8281,102.4688 C1159.8281,102.0313 1159.8125,101.9063 1159.7188,101.75 C1159.5625,101.4844 1159.2813,101.3438 1158.9844,101.3438 C1158.6875,101.3438 1158.4844,101.4375 1158.2656,101.75 L1158.0938,101.6719 Z " fill="#000000"/><text fill="#000000" font-family="sans-serif" font-size="14" lengthAdjust="spacing" textLength="50" x="1176.25" y="110.8467">People</text><line style="stroke:#181818;stroke-width:0.5;" x1="1045.5" x2="1324.5" y1="122" y2="122"/><rect fill="none" height="6" style="stroke:#C82930;stroke-width:1.0;" width="6" x="1052.5" y="132.6484"/><text fill="#000000" font-family="sans-serif" font-size="14" lengthAdjust="spacing" textLength="170" x="1064.5" y="138.9951">List&lt;Person&gt; members</text><rect fill="none" height="6" style="stroke:#C82930;stroke-width:1.0;" width="6" x="1052.5" y="148.9453"/><text fill="#000000" font-family="sans-serif" font-size="14" lengthAdjust="spacing" textLength="190" x="1064.5" y="155.292">SortStrategy sortStrategy</text><line style="stroke:#181818;stroke-width:0.5;" x1="1045.5" x2="1324.5" y1="162.5938" y2="162.5938"/><ellipse cx="1055.5" cy="176.2422" fill="#84BE84" rx="3" ry="3" style="stroke:#038048;stroke-width:1.0;"/><text fill="#000000" font-family="sans-serif" font-size="14" lengthAdjust="spacing" textLength="129" x="1064.5" y="179.5889">«Create» People()</text><ellipse cx="1055.5" cy="192.5391" fill="#84BE84" rx="3" ry="3" style="stroke:#038048;stroke-width:1.0;"/><text fill="#000000" font-family="sans-serif" font-size="14" lengthAdjust="spacing" textLength="255" x="1064.5" y="195.8857">void setSortStrategy(SortStrategy)</text><ellipse cx="1055.5" cy="208.8359" fill="#84BE84" rx="3" ry="3" style="stroke:#038048;stroke-width:1.0;"/><text fill="#000000" font-family="sans-serif" font-size="14" lengthAdjust="spacing" textLength="179" x="1064.5" y="212.1826">void addMember(Person)</text><ellipse cx="1055.5" cy="225.1328" fill="#84BE84" rx="3" ry="3" style="stroke:#038048;stroke-width:1.0;"/><text fill="#000000" font-family="sans-serif" font-size="14" lengthAdjust="spacing" textLength="168" x="1064.5" y="228.4795">void print(PrintStream)</text></g><!--MD5=[e364e7af7b97b971b7cb39d8994d1cb5]
class src.AgeSortStrategy--><g id="elem_src.AgeSortStrategy"><rect codeLine="29" fill="#F1F1F1" height="64.2969" id="src.AgeSortStrategy" rx="2.5" ry="2.5" style="stroke:#181818;stroke-width:0.5;" width="251" x="594.5" y="345"/><ellipse cx="654.75" cy="361" fill="#ADD1B2" rx="11" ry="11" style="stroke:#181818;stroke-width:1.0;"/><path d="M657.0938,356.6719 C656.1563,356.2344 655.5625,356.0938 654.6875,356.0938 C652.0625,356.0938 650.0625,358.1719 650.0625,360.8906 L650.0625,362.0156 C650.0625,364.5938 652.1719,366.4844 655.0625,366.4844 C656.2813,366.4844 657.4375,366.1875 658.1875,365.6406 C658.7656,365.2344 659.0938,364.7813 659.0938,364.3906 C659.0938,363.9375 658.7031,363.5469 658.2344,363.5469 C658.0156,363.5469 657.8125,363.625 657.625,363.8125 C657.1719,364.2969 657.1719,364.2969 656.9844,364.3906 C656.5625,364.6563 655.875,364.7813 655.1094,364.7813 C653.0625,364.7813 651.7656,363.6875 651.7656,361.9844 L651.7656,360.8906 C651.7656,359.1094 653.0156,357.7969 654.75,357.7969 C655.3281,357.7969 655.9375,357.9531 656.4063,358.2031 C656.8906,358.4844 657.0625,358.7031 657.1563,359.1094 C657.2188,359.5156 657.25,359.6406 657.3906,359.7656 C657.5313,359.9063 657.7656,360.0156 657.9844,360.0156 C658.25,360.0156 658.5156,359.875 658.6875,359.6563 C658.7969,359.5 658.8281,359.3125 658.8281,358.8906 L658.8281,357.4688 C658.8281,357.0313 658.8125,356.9063 658.7188,356.75 C658.5625,356.4844 658.2813,356.3438 657.9844,356.3438 C657.6875,356.3438 657.4844,356.4375 657.2656,356.75 L657.0938,356.6719 Z " fill="#000000"/><text fill="#000000" font-family="sans-serif" font-size="14" lengthAdjust="spacing" textLength="122" x="675.25" y="365.8467">AgeSortStrategy</text><line style="stroke:#181818;stroke-width:0.5;" x1="595.5" x2="844.5" y1="377" y2="377"/><line style="stroke:#181818;stroke-width:0.5;" x1="595.5" x2="844.5" y1="385" y2="385"/><ellipse cx="605.5" cy="398.6484" fill="#84BE84" rx="3" ry="3" style="stroke:#038048;stroke-width:1.0;"/><text fill="#000000" font-family="sans-serif" font-size="14" lengthAdjust="spacing" textLength="225" x="614.5" y="401.9951">void customSort(List&lt;Person&gt;)</text></g><!--MD5=[4821958714bc281297b8273b1420efd2]
class src.SortStrategy--><g id="elem_src.SortStrategy"><rect codeLine="32" fill="#F1F1F1" height="64.2969" id="src.SortStrategy" rx="2.5" ry="2.5" style="stroke:#181818;stroke-width:0.5;" width="251" x="416.5" y="131"/><ellipse cx="493.25" cy="147" fill="#B4A7E5" rx="11" ry="11" style="stroke:#181818;stroke-width:1.0;"/><path d="M494.2031,143.7813 L495.9219,143.7813 C496.3125,143.7813 496.5,143.75 496.625,143.6719 C496.8906,143.5156 497.0313,143.2344 497.0313,142.9375 C497.0313,142.6719 496.9219,142.4063 496.6875,142.2344 C496.5156,142.125 496.375,142.0938 495.9219,142.0938 L490.7813,142.0938 C490.3438,142.0938 490.2188,142.1094 490.0625,142.2031 C489.8125,142.3594 489.6563,142.6563 489.6563,142.9375 C489.6563,143.2188 489.7969,143.4688 490.0156,143.6406 C490.1719,143.75 490.3594,143.7813 490.7813,143.7813 L492.5,143.7813 L492.5,150.2969 L490.7813,150.2969 C490.3438,150.2969 490.2188,150.3125 490.0625,150.4219 C489.8125,150.5781 489.6563,150.8594 489.6563,151.1563 C489.6563,151.4063 489.7969,151.6719 490.0156,151.8281 C490.1719,151.9531 490.375,152 490.7813,152 L495.9219,152 C496.6719,152 497.0313,151.7188 497.0313,151.1563 C497.0313,150.875 496.9219,150.625 496.6875,150.4531 C496.5156,150.3281 496.375,150.2969 495.9219,150.2969 L494.2031,150.2969 L494.2031,143.7813 Z " fill="#000000"/><text fill="#000000" font-family="sans-serif" font-size="14" font-style="italic" lengthAdjust="spacing" textLength="89" x="513.75" y="151.8467">SortStrategy</text><line style="stroke:#181818;stroke-width:0.5;" x1="417.5" x2="666.5" y1="163" y2="163"/><line style="stroke:#181818;stroke-width:0.5;" x1="417.5" x2="666.5" y1="171" y2="171"/><polygon fill="#4177AF" points="427.5,180.6484,423.5,186.6484,431.5,186.6484" style="stroke:#1963A0;stroke-width:1.0;"/><text fill="#000000" font-family="sans-serif" font-size="14" lengthAdjust="spacing" textLength="225" x="436.5" y="187.9951">void customSort(List&lt;Person&gt;)</text></g><!--MD5=[b4123affcd0d604bd0f3b2633f98ad59]
class src.Main--><g id="elem_src.Main"><rect codeLine="35" fill="#F1F1F1" height="64.2969" id="src.Main" rx="2.5" ry="2.5" style="stroke:#181818;stroke-width:0.5;" width="159" x="1166.5" y="345"/><ellipse cx="1225.25" cy="361" fill="#ADD1B2" rx="11" ry="11" style="stroke:#181818;stroke-width:1.0;"/><path d="M1227.5938,356.6719 C1226.6563,356.2344 1226.0625,356.0938 1225.1875,356.0938 C1222.5625,356.0938 1220.5625,358.1719 1220.5625,360.8906 L1220.5625,362.0156 C1220.5625,364.5938 1222.6719,366.4844 1225.5625,366.4844 C1226.7813,366.4844 1227.9375,366.1875 1228.6875,365.6406 C1229.2656,365.2344 1229.5938,364.7813 1229.5938,364.3906 C1229.5938,363.9375 1229.2031,363.5469 1228.7344,363.5469 C1228.5156,363.5469 1228.3125,363.625 1228.125,363.8125 C1227.6719,364.2969 1227.6719,364.2969 1227.4844,364.3906 C1227.0625,364.6563 1226.375,364.7813 1225.6094,364.7813 C1223.5625,364.7813 1222.2656,363.6875 1222.2656,361.9844 L1222.2656,360.8906 C1222.2656,359.1094 1223.5156,357.7969 1225.25,357.7969 C1225.8281,357.7969 1226.4375,357.9531 1226.9063,358.2031 C1227.3906,358.4844 1227.5625,358.7031 1227.6563,359.1094 C1227.7188,359.5156 1227.75,359.6406 1227.8906,359.7656 C1228.0313,359.9063 1228.2656,360.0156 1228.4844,360.0156 C1228.75,360.0156 1229.0156,359.875 1229.1875,359.6563 C1229.2969,359.5 1229.3281,359.3125 1229.3281,358.8906 L1229.3281,357.4688 C1229.3281,357.0313 1229.3125,356.9063 1229.2188,356.75 C1229.0625,356.4844 1228.7813,356.3438 1228.4844,356.3438 C1228.1875,356.3438 1227.9844,356.4375 1227.7656,356.75 L1227.5938,356.6719 Z " fill="#000000"/><text fill="#000000" font-family="sans-serif" font-size="14" lengthAdjust="spacing" textLength="33" x="1245.75" y="365.8467">Main</text><line style="stroke:#181818;stroke-width:0.5;" x1="1167.5" x2="1324.5" y1="377" y2="377"/><line style="stroke:#181818;stroke-width:0.5;" x1="1167.5" x2="1324.5" y1="385" y2="385"/><ellipse cx="1177.5" cy="398.6484" fill="#84BE84" rx="3" ry="3" style="stroke:#038048;stroke-width:1.0;"/><text fill="#000000" font-family="sans-serif" font-size="14" lengthAdjust="spacing" text-decoration="underline" textLength="133" x="1186.5" y="401.9951">void main(String[])</text></g><!--MD5=[eae4227ecac09d1af270d3120479f31c]
class src.HeightSortStrategy--><g id="elem_src.HeightSortStrategy"><rect codeLine="38" fill="#F1F1F1" height="64.2969" id="src.HeightSortStrategy" rx="2.5" ry="2.5" style="stroke:#181818;stroke-width:0.5;" width="251" x="880.5" y="345"/><ellipse cx="930.75" cy="361" fill="#ADD1B2" rx="11" ry="11" style="stroke:#181818;stroke-width:1.0;"/><path d="M933.0938,356.6719 C932.1563,356.2344 931.5625,356.0938 930.6875,356.0938 C928.0625,356.0938 926.0625,358.1719 926.0625,360.8906 L926.0625,362.0156 C926.0625,364.5938 928.1719,366.4844 931.0625,366.4844 C932.2813,366.4844 933.4375,366.1875 934.1875,365.6406 C934.7656,365.2344 935.0938,364.7813 935.0938,364.3906 C935.0938,363.9375 934.7031,363.5469 934.2344,363.5469 C934.0156,363.5469 933.8125,363.625 933.625,363.8125 C933.1719,364.2969 933.1719,364.2969 932.9844,364.3906 C932.5625,364.6563 931.875,364.7813 931.1094,364.7813 C929.0625,364.7813 927.7656,363.6875 927.7656,361.9844 L927.7656,360.8906 C927.7656,359.1094 929.0156,357.7969 930.75,357.7969 C931.3281,357.7969 931.9375,357.9531 932.4063,358.2031 C932.8906,358.4844 933.0625,358.7031 933.1563,359.1094 C933.2188,359.5156 933.25,359.6406 933.3906,359.7656 C933.5313,359.9063 933.7656,360.0156 933.9844,360.0156 C934.25,360.0156 934.5156,359.875 934.6875,359.6563 C934.7969,359.5 934.8281,359.3125 934.8281,358.8906 L934.8281,357.4688 C934.8281,357.0313 934.8125,356.9063 934.7188,356.75 C934.5625,356.4844 934.2813,356.3438 933.9844,356.3438 C933.6875,356.3438 933.4844,356.4375 933.2656,356.75 L933.0938,356.6719 Z " fill="#000000"/><text fill="#000000" font-family="sans-serif" font-size="14" lengthAdjust="spacing" textLength="142" x="951.25" y="365.8467">HeightSortStrategy</text><line style="stroke:#181818;stroke-width:0.5;" x1="881.5" x2="1130.5" y1="377" y2="377"/><line style="stroke:#181818;stroke-width:0.5;" x1="881.5" x2="1130.5" y1="385" y2="385"/><ellipse cx="891.5" cy="398.6484" fill="#84BE84" rx="3" ry="3" style="stroke:#038048;stroke-width:1.0;"/><text fill="#000000" font-family="sans-serif" font-size="14" lengthAdjust="spacing" textLength="225" x="900.5" y="401.9951">void customSort(List&lt;Person&gt;)</text></g><!--MD5=[7ae30bf54a6fd5c66f6c07d42035a669]
reverse link src.SortStrategy to src.WeightStrategy--><g id="link_src.SortStrategy_src.WeightStrategy"><path codeLine="43" d="M466.339,204.711 C390.331,245.609 274.852,307.745 205.867,344.8633 " fill="none" id="src.SortStrategy-backto-src.WeightStrategy" style="stroke:#181818;stroke-width:1.0;stroke-dasharray:7.0,7.0;"/><polygon fill="none" points="463.358,198.366,484.287,195.054,469.992,210.695,463.358,198.366" style="stroke:#181818;stroke-width:1.0;"/></g><!--MD5=[c20843995e2356d6001311f6a2a7592a]
reverse link src.SortStrategy to src.NameSortStrategy--><g id="link_src.SortStrategy_src.NameSortStrategy"><path codeLine="44" d="M516.908,213.255 C496.203,253.898 467.457,310.325 449.825,344.9357 " fill="none" id="src.SortStrategy-backto-src.NameSortStrategy" style="stroke:#181818;stroke-width:1.0;stroke-dasharray:7.0,7.0;"/><polygon fill="none" points="510.748,209.925,526.064,195.281,523.223,216.28,510.748,209.925" style="stroke:#181818;stroke-width:1.0;"/></g><!--MD5=[0702d93970d24dad479e2a041479e97e]
reverse link src.SortStrategy to src.AgeSortStrategy--><g id="link_src.SortStrategy_src.AgeSortStrategy"><path codeLine="45" d="M581.288,210.792 C615.544,251.591 664.266,309.62 693.918,344.9357 " fill="none" id="src.SortStrategy-backto-src.AgeSortStrategy" style="stroke:#181818;stroke-width:1.0;stroke-dasharray:7.0,7.0;"/><polygon fill="none" points="575.764,215.099,568.265,195.281,586.486,206.097,575.764,215.099" style="stroke:#181818;stroke-width:1.0;"/></g><!--MD5=[e69bac3a69bab290111cd7b71110bc23]
reverse link src.SortStrategy to src.HeightSortStrategy--><g id="link_src.SortStrategy_src.HeightSortStrategy"><path codeLine="46" d="M622.91,203.919 C672.132,227.937 736.408,258.827 794,285 C839.398,305.631 890.78,327.718 931.589,344.9656 " fill="none" id="src.SortStrategy-backto-src.HeightSortStrategy" style="stroke:#181818;stroke-width:1.0;stroke-dasharray:7.0,7.0;"/><polygon fill="none" points="619.718,210.151,604.827,195.075,625.869,197.574,619.718,210.151" style="stroke:#181818;stroke-width:1.0;"/></g><!--MD5=[25b04a21f22d577c0fa28be3811324da]
@startuml
class src.Person {
- String name
- Integer age
- Integer height
- Integer weight
+ String getName()
+ void setName(String)
+ Integer getAge()
+ void setAge(Integer)
+ Integer getHeight()
+ void setHeight(Integer)
+ Integer getWeight()
+ void setWeight(Integer)
}
class src.WeightStrategy {
+ void customSort(List<Person>)
}
class src.NameSortStrategy {
+ void customSort(List<Person>)
}
class src.People {
- List<Person> members
- SortStrategy sortStrategy
+ <<Create>> People()
+ void setSortStrategy(SortStrategy)
+ void addMember(Person)
+ void print(PrintStream)
}
class src.AgeSortStrategy {
+ void customSort(List<Person>)
}
interface src.SortStrategy {
~ void customSort(List<Person>)
}
class src.Main {
+ {static} void main(String[])
}
class src.HeightSortStrategy {
+ void customSort(List<Person>)
}


src.SortStrategy <|.. src.WeightStrategy
src.SortStrategy <|.. src.NameSortStrategy
src.SortStrategy <|.. src.AgeSortStrategy
src.SortStrategy <|.. src.HeightSortStrategy
@enduml

PlantUML version 1.2022.13beta7(Unknown compile time)
(GPL source distribution)
Java Runtime: Java(TM) SE Runtime Environment
JVM: Java HotSpot(TM) 64-Bit Server VM
Default Encoding: UTF-8
Language: en
Country: US
--></g></svg>